<?xml version="1.0" encoding="iso-8859-1"?>
<!-- Generator: Adobe Illustrator 19.0.0, SVG Export Plug-In . SVG Version: 6.00 Build 0)  -->
<svg version="1.1" id="Capa_1" xmlns="http://www.w3.org/2000/svg" xmlns:xlink="http://www.w3.org/1999/xlink" x="36px" y="36px"
	 viewBox="0 0 512 512" style="enable-background:new 0 0 512 512;" xml:space="preserve">
<g>
	<g>
		<path d="M352.552,256.073c-1.854-0.167-45.167-2.229-73.427,26.042c-5.079,5.077-9.047,10.965-12.458,17.249v-64.697
			c41.167,0,74.667-33.5,74.667-74.667V66.583c0-5.615,2.281-11.115,6.25-15.083l11.958-11.958c3.25-3.25,4.052-8.208,2-12.313
			c-2.052-4.094-6.5-6.5-11.052-5.792L320,25.796V10.667C320,4.771,315.229,0,309.333,0c-20.191,0-39.883,3.344-57.357,9.483
			C236.241,3.487,219.561,0,202.667,0C196.771,0,192,4.771,192,10.667v15.128l-30.49-4.357c-4.552-0.698-9,1.698-11.052,5.792
			c-2.052,4.104-1.25,9.063,2,12.313L164.417,51.5c3.969,3.969,6.25,9.469,6.25,15.083V160c0,41.167,33.5,74.667,74.667,74.667
			v266.667c0,5.896,4.771,10.667,10.667,10.667c5.896,0,10.667-4.771,10.667-10.667V362.449c2.538,0.141,5.026,0.217,7.479,0.217
			c26.073,0,47.042-7.76,62.406-23.125c28.26-28.25,26.146-71.594,26.042-73.427C362.292,260.698,357.969,256.375,352.552,256.073z
			 M298.667,21.677v7.667c-2.737,0.576-5.483,1.099-8.181,1.857l-4.611-3.461c-1.801-1.35-3.837-2.331-5.701-3.589
			C286.215,23.043,292.342,22.078,298.667,21.677z M309.771,48.813l15.208-2.177C321.75,52.75,320,59.625,320,66.583V160
			c0-39.189-17.62-74.865-45.385-99.589C285.867,54.47,297.63,50.536,309.771,48.813z M213.333,21.833
			c18.978,1.754,37.302,8.401,53.28,18.797c-3.556,1.807-7.042,3.845-10.5,5.994c-12.944-8.035-27.324-13.789-42.78-17.008V21.833z
			 M245.333,213.333C215.927,213.333,192,189.406,192,160V66.583c0-6.958-1.75-13.833-4.979-19.948l15.208,2.177
			c54.979,7.854,96.437,55.656,96.437,111.188C298.667,189.406,274.74,213.333,245.333,213.333z M321.469,324.458
			c-10.594,10.594-25.385,16.229-44.083,16.823c0.594-18.646,6.198-33.406,16.729-43.99c14.188-14.26,34.594-18.375,46.823-19.531
			C339.823,289.927,335.75,310.177,321.469,324.458z"/>
	</g>
</g>
<g>
</g>
<g>
</g>
<g>
</g>
<g>
</g>
<g>
</g>
<g>
</g>
<g>
</g>
<g>
</g>
<g>
</g>
<g>
</g>
<g>
</g>
<g>
</g>
<g>
</g>
<g>
</g>
<g>
</g>
</svg>
